<svg xmlns="http://www.w3.org/2000/svg" viewBox="0 0 88.1 95"><style>.st0{fill:#e3adad}</style><g id="Layer_1"><path class="st0" d="M85.2 23.7C81.2 16.9 52.3 0 44 0 35.8 0 6.9 16.9 2.9 23.7-1 30.4-1 64.6 2.9 71.3 6.9 78.1 35.8 95 44 95c8.3 0 37.2-16.9 41.1-23.7 3.9-6.7 3.9-40.9.1-47.6zM83.1 70c-3.7 6.3-31.7 22.5-39 22.5S8.7 76.3 5 70c-3.4-5.9-3.4-39.1 0-45C8.7 18.7 36.7 2.5 44 2.5S79.4 18.7 83 25c3.5 5.9 3.5 39.1.1 45z"/><path class="st0" d="M47.3 20.8v-3.5h-1.7c-.6 0-2.2.3-3 1.4 1.4.6 2.7 1.3 3.7 2.3.3-.1.7-.1 1-.2zm4.2 5.7v-3.8h-2.2c-.2.3-.5.4-.9.4-.1 0-.2 0-.4-.1.7 1.2 1.2 2.7 1.4 4.1.7-.3 1.4-.5 2.1-.6zm-6.4 9.7v7.7h1.7c4.8 0 8.7-3.5 8.7-7.8v-7.7l-1.7-.1c-.4 0-.7 0-1.1.1-1.4.1-2.7.6-3.8 1.3-2.1 1.3-3.5 3.3-3.7 5.5-.1.3-.1.7-.1 1zM39.4 30c-1.1-.7-2.4-1.2-3.7-1.4-.4-.1-.9-.1-1.4-.1h-1.7v7.6c0 4.3 3.9 7.8 8.7 7.8H43v-7.7c0-.3 0-.6-.1-.9-.3-2.1-1.6-4-3.5-5.3zm-5.2 26.9H30v4.2c0 3.2 2.7 5.9 6 5.9h2.6l-2.4-2.4c-.4-.4-.4-1.1 0-1.5.4-.4 1.1-.4 1.5 0l2.4 2.4v-2.7c0-3.2-2.7-5.9-5.9-5.9zm13.1-28.7v-.3c0-1.8-.7-3.6-2-5-1.7-1.8-4.1-2.8-6.7-2.8h-1.7v6.3c1.4.3 2.7.9 3.7 1.6 1.4 1 2.6 2.3 3.4 3.7.8-1.3 1.9-2.6 3.3-3.5z"/><path class="st0" d="M81.6 25.8C78.3 20.1 50.6 4.1 44 4.1c-6.6 0-34.3 16-37.6 21.7-3.1 5.3-3.1 38.1 0 43.4 3.3 5.7 31 21.7 37.6 21.7 6.6 0 34.3-16 37.6-21.7 3.1-5.3 3.1-38.1 0-43.4zM60.2 52c0 4.5-3.6 8.1-8.1 8.1h-4.8L45 62.4v16.4c0 .6-.5 1.1-1.1 1.1s-.9-.5-.9-1.1v-7.4l-2.3-2.3h-4.8c-4.5 0-8.1-3.6-8.1-8.1v-5.3c0-.6.5-1.1 1.1-1.1h5.3c4.5 0 8.1 3.6 8.1 8.1v4.8l.7.7V46h-1.7c-6 0-10.9-4.5-10.9-9.9v-8.8c0-.6.5-1.1 1.1-1.1h3.2v-7.1c0-.6.5-1.1 1.1-1.1h2.7c.6 0 1.2.1 1.9.2 1.1-2.2 3.6-3.1 5.2-3.1h2.7c.6 0 1.1.5 1.1 1.1v4.3h3.1c.6 0 1.1.5 1.1 1.1v4.7h2.8c.6 0 1.1.5 1.1 1.1v8.7c0 5.5-4.9 9.9-10.9 9.9h-1.7v13.4l.7-.7v-4.8c0-4.5 3.6-8.1 8.1-8.1H59c.6 0 1.1.4 1.1 1V52z"/><path class="st0" d="M48.1 53.8v2.7l2.4-2.4c.4-.4 1.1-.4 1.5 0s.4 1.1 0 1.5L49.6 58h2.6c3.2 0 5.9-2.7 5.9-5.9h.1v-4.2H54c-3.3 0-5.9 2.7-5.9 5.9z"/></g></svg>