<svg xmlns="http://www.w3.org/2000/svg" viewBox="0 0 80 68.4"><path d="M73.3 11.2c-3.7 0-6.7 3-6.7 6.7 0 2.5 1.4 4.7 3.4 5.8-.1.2-.3.4-.4.7-3.7 6.3-11.8 15.4-16.3 15.4-4 0-10.9-12.4-11.2-26.7 2.7-.9 4.6-3.4 4.6-6.4a6.7 6.7 0 0 0-13.4 0c0 3 1.9 5.5 4.6 6.4-.3 14.4-7.2 26.7-11.2 26.7-4.5 0-12.6-9.1-16.3-15.4-.1-.2-.3-.5-.4-.7 2-1.2 3.4-3.3 3.4-5.8a6.7 6.7 0 1 0-6.7 6.7h.6v.3s6.7 35 8.3 37.7c1.6 2.7 13.5 5.8 24.4 5.8s22.7-3.1 24.4-5.8c1.6-2.7 8.3-37.7 8.3-37.7v-.3h.6a6.7 6.7 0 0 0 0-13.4zM40 64.8c-10.8 0-19.6-2-19.6-4.6 0-2.5 8.8-4.6 19.6-4.6s19.6 2 19.6 4.6c0 2.5-8.8 4.6-19.6 4.6z"/></svg>